<mxfile host="65bd71144e">
    <diagram id="AFKQdoeDfJijLRzhECTL" name="Page-1">
        <mxGraphModel dx="3477" dy="3228" grid="1" gridSize="10" guides="1" tooltips="1" connect="1" arrows="1" fold="1" page="1" pageScale="1" pageWidth="850" pageHeight="1100" math="0" shadow="0">
            <root>
                <mxCell id="0"/>
                <mxCell id="1" parent="0"/>
                <mxCell id="2" value="Â Activity Diagram Mengelola Data Penilaian" style="shape=table;childLayout=tableLayout;startSize=40;collapsible=0;recursiveResize=0;expand=0;align=left;fillColor=none;fontStyle=1;strokeWidth=3;fontSize=15;" parent="1" vertex="1">
                    <mxGeometry x="-1680" y="-2180" width="810" height="1030" as="geometry"/>
                </mxCell>
                <mxCell id="3" value="" style="shape=tableRow;horizontal=0;swimlaneHead=0;swimlaneBody=0;top=0;left=0;strokeColor=inherit;bottom=0;right=0;dropTarget=0;fontStyle=1;fillColor=none;points=[[0,0.5],[1,0.5]];portConstraint=eastwest;startSize=40;collapsible=0;recursiveResize=0;expand=0;strokeWidth=3;fontSize=13;" parent="2" vertex="1">
                    <mxGeometry y="40" width="810" height="990" as="geometry"/>
                </mxCell>
                <mxCell id="4" value="USER" style="swimlane;swimlaneHead=0;swimlaneBody=0;fontStyle=1;strokeColor=inherit;connectable=0;fillColor=none;startSize=40;collapsible=0;recursiveResize=0;expand=0;strokeWidth=3;fontSize=13;" parent="3" vertex="1">
                    <mxGeometry x="40" width="385" height="990" as="geometry">
                        <mxRectangle width="385" height="990" as="alternateBounds"/>
                    </mxGeometry>
                </mxCell>
                <mxCell id="5" value="&lt;span&gt;Memilih menu penilaian&lt;/span&gt;" style="rounded=1;whiteSpace=wrap;html=1;fillColor=none;strokeWidth=3;fontSize=13;fontStyle=1" parent="4" vertex="1">
                    <mxGeometry x="105" y="120" width="120" height="60" as="geometry"/>
                </mxCell>
                <mxCell id="6" value="" style="ellipse;whiteSpace=wrap;html=1;aspect=fixed;strokeColor=#000000;fillColor=#000000;strokeWidth=3;fontSize=13;fontStyle=1" parent="4" vertex="1">
                    <mxGeometry x="150" y="50" width="30" height="30" as="geometry"/>
                </mxCell>
                <mxCell id="10" value="" style="endArrow=classic;html=1;entryX=0.5;entryY=0;entryDx=0;entryDy=0;exitX=0.5;exitY=1;exitDx=0;exitDy=0;strokeWidth=3;fontSize=13;fontStyle=1" parent="4" source="6" target="5" edge="1">
                    <mxGeometry width="50" height="50" relative="1" as="geometry">
                        <mxPoint x="360" y="260" as="sourcePoint"/>
                        <mxPoint x="410" y="210" as="targetPoint"/>
                    </mxGeometry>
                </mxCell>
                <mxCell id="23" value="" style="rhombus;whiteSpace=wrap;html=1;fillColor=none;strokeWidth=3;fontSize=13;fontStyle=1" parent="4" vertex="1">
                    <mxGeometry x="120" y="220" width="80" height="80" as="geometry"/>
                </mxCell>
                <mxCell id="25" value="&lt;span&gt;&lt;font&gt;Delete&lt;/font&gt;&lt;/span&gt;" style="rounded=1;whiteSpace=wrap;html=1;fillColor=none;strokeWidth=3;fontSize=13;fontStyle=1" parent="4" vertex="1">
                    <mxGeometry x="260" y="245" width="90" height="30" as="geometry"/>
                </mxCell>
                <mxCell id="26" value="" style="endArrow=classic;html=1;entryX=0;entryY=0.5;entryDx=0;entryDy=0;exitX=1;exitY=0.5;exitDx=0;exitDy=0;strokeWidth=3;fontSize=13;fontStyle=1" parent="4" source="23" target="25" edge="1">
                    <mxGeometry width="50" height="50" relative="1" as="geometry">
                        <mxPoint x="360" y="270" as="sourcePoint"/>
                        <mxPoint x="573" y="270" as="targetPoint"/>
                        <Array as="points"/>
                    </mxGeometry>
                </mxCell>
                <mxCell id="33" value="&lt;span&gt;Edit&lt;/span&gt;" style="rounded=1;whiteSpace=wrap;html=1;fillColor=none;strokeWidth=3;fontSize=13;fontStyle=1" parent="4" vertex="1">
                    <mxGeometry x="115" y="360" width="90" height="30" as="geometry"/>
                </mxCell>
                <mxCell id="34" value="" style="endArrow=classic;html=1;entryX=0.5;entryY=0;entryDx=0;entryDy=0;exitX=0.5;exitY=1;exitDx=0;exitDy=0;strokeWidth=3;fontSize=13;fontStyle=1" parent="4" source="23" target="33" edge="1">
                    <mxGeometry width="50" height="50" relative="1" as="geometry">
                        <mxPoint x="210" y="270" as="sourcePoint"/>
                        <mxPoint x="270" y="270" as="targetPoint"/>
                        <Array as="points"/>
                    </mxGeometry>
                </mxCell>
                <mxCell id="69" value="" style="edgeStyle=none;html=1;strokeWidth=3;fontSize=13;fontStyle=1" parent="4" source="9" target="70" edge="1">
                    <mxGeometry relative="1" as="geometry"/>
                </mxCell>
                <mxCell id="9" value="&lt;span&gt;Klik tombol simpan&lt;/span&gt;" style="rounded=1;whiteSpace=wrap;html=1;fillColor=none;strokeWidth=3;fontSize=13;fontStyle=1" parent="4" vertex="1">
                    <mxGeometry x="100" y="720" width="120" height="40" as="geometry"/>
                </mxCell>
                <mxCell id="8" value="&lt;span&gt;Mengisi atau menambah data penilaian karyawan&amp;nbsp;&lt;/span&gt;" style="rounded=1;whiteSpace=wrap;html=1;fillColor=none;strokeWidth=3;fontSize=13;fontStyle=1" parent="4" vertex="1">
                    <mxGeometry x="100" y="590" width="120" height="70" as="geometry"/>
                </mxCell>
                <mxCell id="70" value="&lt;span&gt;Klik Hitung Skor / Simpan&lt;/span&gt;" style="rounded=1;whiteSpace=wrap;html=1;fillColor=none;strokeWidth=3;fontSize=13;fontStyle=1" parent="4" vertex="1">
                    <mxGeometry x="100" y="840" width="120" height="40" as="geometry"/>
                </mxCell>
                <mxCell id="71" value="" style="edgeStyle=none;html=1;exitX=0.5;exitY=1;exitDx=0;exitDy=0;strokeWidth=3;fontSize=13;fontStyle=1" parent="4" source="8" edge="1">
                    <mxGeometry relative="1" as="geometry">
                        <mxPoint x="159.5" y="660" as="sourcePoint"/>
                        <mxPoint x="160" y="720" as="targetPoint"/>
                    </mxGeometry>
                </mxCell>
                <mxCell id="13" value="SYSTEM" style="swimlane;swimlaneHead=0;swimlaneBody=0;fontStyle=1;strokeColor=inherit;connectable=0;fillColor=none;startSize=40;collapsible=0;recursiveResize=0;expand=0;strokeWidth=3;fontSize=13;" parent="3" vertex="1">
                    <mxGeometry x="425" width="385" height="990" as="geometry">
                        <mxRectangle width="385" height="990" as="alternateBounds"/>
                    </mxGeometry>
                </mxCell>
                <mxCell id="14" value="&lt;span&gt;Menampilkan halaman penilaian&lt;/span&gt;" style="rounded=1;whiteSpace=wrap;html=1;fillColor=none;strokeWidth=3;fontSize=13;fontStyle=1" parent="13" vertex="1">
                    <mxGeometry x="135" y="120" width="120" height="60" as="geometry"/>
                </mxCell>
                <mxCell id="18" value="" style="endArrow=classic;html=1;entryX=0.5;entryY=0;entryDx=0;entryDy=0;strokeWidth=3;fontSize=13;fontStyle=1;exitX=0.5;exitY=1;exitDx=0;exitDy=0;" parent="13" target="17" edge="1" source="16">
                    <mxGeometry width="50" height="50" relative="1" as="geometry">
                        <mxPoint x="235" y="920" as="sourcePoint"/>
                        <mxPoint x="235" y="630" as="targetPoint"/>
                    </mxGeometry>
                </mxCell>
                <mxCell id="17" value="" style="ellipse;whiteSpace=wrap;html=1;aspect=fixed;strokeColor=#000000;fillColor=#000000;strokeWidth=3;fontSize=13;fontStyle=1" parent="13" vertex="1">
                    <mxGeometry x="220" y="950" width="30" height="30" as="geometry"/>
                </mxCell>
                <mxCell id="7" value="&lt;span&gt;Mengahapus data penilaian&lt;/span&gt;" style="rounded=1;whiteSpace=wrap;html=1;fillColor=none;strokeWidth=3;fontSize=13;fontStyle=1" parent="13" vertex="1">
                    <mxGeometry x="175" y="440" width="120" height="60" as="geometry"/>
                </mxCell>
                <mxCell id="15" value="&lt;span&gt;Menampilkan Konfirmasi hapus data&lt;/span&gt;" style="rounded=1;whiteSpace=wrap;html=1;fillColor=none;strokeWidth=3;fontSize=13;fontStyle=1" parent="13" vertex="1">
                    <mxGeometry x="175" y="230" width="120" height="60" as="geometry"/>
                </mxCell>
                <mxCell id="16" value="&lt;span&gt;Menyimpan dan menampilkan halaman penilaian&lt;/span&gt;" style="rounded=1;whiteSpace=wrap;html=1;fillColor=none;strokeWidth=3;fontSize=13;fontStyle=1" parent="13" vertex="1">
                    <mxGeometry x="175" y="820" width="120" height="60" as="geometry"/>
                </mxCell>
                <mxCell id="28" value="" style="rhombus;whiteSpace=wrap;html=1;fillColor=none;strokeWidth=3;fontSize=13;fontStyle=1" parent="13" vertex="1">
                    <mxGeometry x="195" y="320" width="80" height="80" as="geometry"/>
                </mxCell>
                <mxCell id="29" value="" style="endArrow=classic;html=1;entryX=0.5;entryY=0;entryDx=0;entryDy=0;exitX=0.5;exitY=1;exitDx=0;exitDy=0;strokeWidth=3;fontSize=13;fontStyle=1" parent="13" source="15" target="28" edge="1">
                    <mxGeometry width="50" height="50" relative="1" as="geometry">
                        <mxPoint x="45" y="300" as="sourcePoint"/>
                        <mxPoint x="95" y="250" as="targetPoint"/>
                    </mxGeometry>
                </mxCell>
                <mxCell id="30" value="tidak" style="text;html=1;align=center;verticalAlign=middle;whiteSpace=wrap;rounded=0;strokeWidth=3;fontSize=13;fontStyle=1" parent="13" vertex="1">
                    <mxGeometry x="265" y="320" width="60" height="30" as="geometry"/>
                </mxCell>
                <mxCell id="31" value="" style="endArrow=classic;html=1;entryX=0.5;entryY=0;entryDx=0;entryDy=0;exitX=0.5;exitY=1;exitDx=0;exitDy=0;strokeWidth=3;fontSize=13;fontStyle=1" parent="13" source="28" target="7" edge="1">
                    <mxGeometry width="50" height="50" relative="1" as="geometry">
                        <mxPoint x="-335" y="620" as="sourcePoint"/>
                        <mxPoint x="-285" y="570" as="targetPoint"/>
                    </mxGeometry>
                </mxCell>
                <mxCell id="32" value="Ya" style="text;html=1;align=center;verticalAlign=middle;whiteSpace=wrap;rounded=0;strokeWidth=3;fontSize=13;fontStyle=1" parent="13" vertex="1">
                    <mxGeometry x="265" y="400" width="60" height="30" as="geometry"/>
                </mxCell>
                <mxCell id="67" value="&lt;span&gt;Menampilkan form data penilaian&lt;/span&gt;" style="rounded=1;whiteSpace=wrap;html=1;fillColor=none;strokeWidth=3;fontSize=13;fontStyle=1" parent="13" vertex="1">
                    <mxGeometry x="175" y="530" width="120" height="60" as="geometry"/>
                </mxCell>
                <mxCell id="72" value="&lt;span&gt;Klik Hitung Skor / Simpan&lt;/span&gt;" style="rounded=1;whiteSpace=wrap;html=1;fillColor=none;strokeWidth=3;fontSize=13;fontStyle=1" parent="13" vertex="1">
                    <mxGeometry x="175" y="690" width="120" height="40" as="geometry"/>
                </mxCell>
                <mxCell id="77" value="" style="edgeStyle=elbowEdgeStyle;elbow=horizontal;endArrow=classic;html=1;curved=0;rounded=0;endSize=10;startSize=8;exitX=1;exitY=0.5;exitDx=0;exitDy=0;strokeWidth=3;entryX=1;entryY=0.5;entryDx=0;entryDy=0;fontSize=13;fontStyle=1" edge="1" parent="13" source="7" target="72">
                    <mxGeometry width="50" height="50" relative="1" as="geometry">
                        <mxPoint x="-175" y="870" as="sourcePoint"/>
                        <mxPoint x="305" y="790" as="targetPoint"/>
                        <Array as="points">
                            <mxPoint x="345" y="650"/>
                        </Array>
                    </mxGeometry>
                </mxCell>
                <mxCell id="79" value="" style="edgeStyle=elbowEdgeStyle;elbow=horizontal;endArrow=classic;html=1;curved=0;rounded=0;endSize=10;startSize=8;exitX=1;exitY=0.5;exitDx=0;exitDy=0;strokeWidth=3;entryX=1;entryY=0.5;entryDx=0;entryDy=0;fontSize=13;fontStyle=1" edge="1" parent="13" source="28" target="14">
                    <mxGeometry width="50" height="50" relative="1" as="geometry">
                        <mxPoint x="275" y="-80" as="sourcePoint"/>
                        <mxPoint x="275" y="150" as="targetPoint"/>
                        <Array as="points">
                            <mxPoint x="355" y="40"/>
                        </Array>
                    </mxGeometry>
                </mxCell>
                <mxCell id="94" value="" style="endArrow=classic;html=1;entryX=0.5;entryY=0;entryDx=0;entryDy=0;strokeWidth=3;fontSize=13;fontStyle=1;exitX=0.5;exitY=1;exitDx=0;exitDy=0;" edge="1" parent="13" source="72" target="16">
                    <mxGeometry width="50" height="50" relative="1" as="geometry">
                        <mxPoint x="245" y="890" as="sourcePoint"/>
                        <mxPoint x="245" y="960" as="targetPoint"/>
                    </mxGeometry>
                </mxCell>
                <mxCell id="19" value="" style="endArrow=classic;html=1;entryX=0;entryY=0.5;entryDx=0;entryDy=0;exitX=1;exitY=0.5;exitDx=0;exitDy=0;strokeWidth=3;fontSize=13;fontStyle=1" parent="3" source="5" target="14" edge="1">
                    <mxGeometry width="50" height="50" relative="1" as="geometry">
                        <mxPoint x="215" y="90" as="sourcePoint"/>
                        <mxPoint x="215" y="130" as="targetPoint"/>
                    </mxGeometry>
                </mxCell>
                <mxCell id="11" value="" style="endArrow=classic;html=1;entryX=0;entryY=0.5;entryDx=0;entryDy=0;strokeWidth=3;fontSize=13;fontStyle=1" parent="3" target="15" edge="1">
                    <mxGeometry width="50" height="50" relative="1" as="geometry">
                        <mxPoint x="390" y="260" as="sourcePoint"/>
                        <mxPoint x="275" y="370" as="targetPoint"/>
                        <Array as="points"/>
                    </mxGeometry>
                </mxCell>
                <mxCell id="76" value="" style="edgeStyle=elbowEdgeStyle;elbow=horizontal;endArrow=classic;html=1;curved=0;rounded=0;endSize=10;startSize=8;exitX=1;exitY=0.5;exitDx=0;exitDy=0;entryX=0;entryY=0.5;entryDx=0;entryDy=0;strokeWidth=3;fontSize=13;fontStyle=1" edge="1" parent="3" source="70" target="16">
                    <mxGeometry width="50" height="50" relative="1" as="geometry">
                        <mxPoint x="400" y="800" as="sourcePoint"/>
                        <mxPoint x="450" y="750" as="targetPoint"/>
                        <Array as="points">
                            <mxPoint x="400" y="880"/>
                        </Array>
                    </mxGeometry>
                </mxCell>
                <mxCell id="82" value="" style="edgeStyle=segmentEdgeStyle;endArrow=classic;html=1;curved=0;rounded=0;endSize=8;startSize=8;exitX=0.5;exitY=1;exitDx=0;exitDy=0;strokeWidth=3;fontSize=13;fontStyle=1" edge="1" parent="3" source="14" target="23">
                    <mxGeometry width="50" height="50" relative="1" as="geometry">
                        <mxPoint x="400" y="400" as="sourcePoint"/>
                        <mxPoint x="450" y="350" as="targetPoint"/>
                        <Array as="points">
                            <mxPoint x="640" y="200"/>
                            <mxPoint x="200" y="200"/>
                        </Array>
                    </mxGeometry>
                </mxCell>
                <mxCell id="84" value="" style="edgeStyle=segmentEdgeStyle;endArrow=classic;html=1;curved=0;rounded=0;endSize=8;startSize=8;exitX=0.5;exitY=1;exitDx=0;exitDy=0;strokeWidth=3;fontSize=13;fontStyle=1;entryX=0;entryY=0.5;entryDx=0;entryDy=0;" edge="1" parent="3" source="33" target="67">
                    <mxGeometry width="50" height="50" relative="1" as="geometry">
                        <mxPoint x="650" y="190" as="sourcePoint"/>
                        <mxPoint x="450" y="600" as="targetPoint"/>
                        <Array as="points">
                            <mxPoint x="200" y="560"/>
                        </Array>
                    </mxGeometry>
                </mxCell>
                <mxCell id="92" value="" style="edgeStyle=segmentEdgeStyle;endArrow=classic;html=1;curved=0;rounded=0;endSize=8;startSize=8;exitX=0.5;exitY=1;exitDx=0;exitDy=0;strokeWidth=3;fontSize=13;fontStyle=1;entryX=1;entryY=0.5;entryDx=0;entryDy=0;" edge="1" parent="3" source="67" target="8">
                    <mxGeometry width="50" height="50" relative="1" as="geometry">
                        <mxPoint x="210" y="400" as="sourcePoint"/>
                        <mxPoint x="370" y="650" as="targetPoint"/>
                        <Array as="points">
                            <mxPoint x="660" y="625"/>
                        </Array>
                    </mxGeometry>
                </mxCell>
            </root>
        </mxGraphModel>
    </diagram>
</mxfile>